<svg viewBox="0 0 256 254.68" xmlns="http://www.w3.org/2000/svg"><mask id="a" x="0" y="0" width="256" height="256" maskUnits="userSpaceOnUse"><path d="M181.53 254.25a15.934 15.934 0 0012.7-.488l52.706-25.361a16.002 16.002 0 009.06-14.42V42.021c0-6.15-3.522-11.754-9.06-14.42L194.23 2.241a15.939 15.939 0 00-18.185 3.097L75.145 97.39l-43.95-33.361a10.655 10.655 0 00-13.614.605L3.486 77.456c-4.648 4.227-4.653 11.54-.011 15.774l38.114 34.773-38.115 34.773c-4.642 4.235-4.637 11.547.011 15.775l14.097 12.822a10.655 10.655 0 0013.613.606l43.95-33.362 100.9 92.053a15.915 15.915 0 005.485 3.585zm10.505-184.37l-76.56 58.115 76.56 58.115z" clip-rule="evenodd" fill="#fff" fill-rule="evenodd"/></mask><g transform="translate(0 -.662)" mask="url(#a)"><path d="M246.94 27.638L194.193 2.241a15.947 15.947 0 00-18.194 3.092L3.319 162.773c-4.645 4.235-4.64 11.547.011 15.775l14.105 12.822a10.667 10.667 0 0013.622.606l207.94-157.75c6.976-5.291 16.996-.316 16.996 8.44v-.612a16 16 0 00-9.059-14.416z" fill="#0065a9"/><g filter="url(#filter0_d)"><path d="M246.94 228.36l-52.747 25.397a15.95 15.95 0 01-18.194-3.092L3.319 93.225c-4.645-4.234-4.64-11.547.011-15.775l14.105-12.822a10.667 10.667 0 0113.622-.605l207.94 157.75c6.976 5.292 16.996.317 16.996-8.44v.613a16.001 16.001 0 01-9.059 14.416z" fill="#007acc"/></g><g filter="url(#filter1_d)"><path d="M194.2 253.76a15.955 15.955 0 01-18.196-3.096c5.904 5.904 16 1.722 16-6.628V11.956c0-8.35-10.096-12.532-16-6.628A15.955 15.955 0 01194.2 2.231l52.738 25.364a16 16 0 019.066 14.417v171.96a16 16 0 01-9.066 14.419L194.2 253.752z" fill="#1f9cf0"/></g><path d="M181.38 254.25a15.936 15.936 0 0012.699-.488l52.706-25.362a16 16 0 009.061-14.419V42.021c0-6.15-3.522-11.754-9.06-14.42l-52.707-25.36a15.939 15.939 0 00-18.185 3.096L74.994 97.39l-43.95-33.361a10.655 10.655 0 00-13.613.605L3.335 77.455c-4.648 4.228-4.653 11.54-.011 15.775l38.114 34.773-38.114 34.773c-4.642 4.235-4.637 11.547.011 15.775l14.097 12.822a10.655 10.655 0 0013.614.606l43.95-33.362 100.9 92.053a15.919 15.919 0 005.486 3.585zm10.505-184.37l-76.56 58.115 76.56 58.115z" clip-rule="evenodd" fill="url(#paint0_linear)" fill-rule="evenodd" opacity=".25"/></g><defs><filter id="filter0_d" x="-21.49" y="40.523" width="298.82" height="236.15" color-interpolation-filters="sRGB" filterUnits="userSpaceOnUse"><feFlood flood-opacity="0" result="BackgroundImageFix"/><feColorMatrix in="SourceAlpha" values="0 0 0 0 0 0 0 0 0 0 0 0 0 0 0 0 0 0 127 0"/><feOffset/><feGaussianBlur stdDeviation="10.667"/><feColorMatrix values="0 0 0 0 0 0 0 0 0 0 0 0 0 0 0 0 0 0 0.25 0"/><feBlend in2="BackgroundImageFix" mode="overlay" result="effect1_dropShadow"/><feBlend in="SourceGraphic" in2="effect1_dropShadow" result="shape"/></filter><filter id="filter1_d" x="154.67" y="-20.674" width="122.67" height="297.35" color-interpolation-filters="sRGB" filterUnits="userSpaceOnUse"><feFlood flood-opacity="0" result="BackgroundImageFix"/><feColorMatrix in="SourceAlpha" values="0 0 0 0 0 0 0 0 0 0 0 0 0 0 0 0 0 0 127 0"/><feOffset/><feGaussianBlur stdDeviation="10.667"/><feColorMatrix values="0 0 0 0 0 0 0 0 0 0 0 0 0 0 0 0 0 0 0.25 0"/><feBlend in2="BackgroundImageFix" mode="overlay" result="effect1_dropShadow"/><feBlend in="SourceGraphic" in2="effect1_dropShadow" result="shape"/></filter><linearGradient id="paint0_linear" x1="127.84" x2="127.84" y1=".66" y2="255.34" gradientUnits="userSpaceOnUse"><stop stop-color="#fff" offset="0"/><stop stop-color="#fff" stop-opacity="0" offset="1"/></linearGradient></defs></svg>
