<svg viewBox="0 0 40.001 39.77" xmlns="http://www.w3.org/2000/svg"><path d="M29.273 39.77a2.491 2.491 0 01-1.781-.73L11.738 24.666 8.277 27.29l-3.405 2.582a1.665 1.665 0 01-1.082.338 1.664 1.664 0 01-1.046-.43l-2.2-2a1.666 1.666 0 010-2.464l5.952-5.43-2.788-2.546-3.163-2.885a1.665 1.665 0 010-2.463l2.2-2 .067-.058a1.665 1.665 0 012.063-.039l6.863 5.21L27.49.73A2.488 2.488 0 0129.33.001c.351.01.699.092 1.018.245l8.236 3.961a2.5 2.5 0 011.416 2.253V33.306a2.501 2.501 0 01-1.416 2.257l-8.236 3.961a2.492 2.492 0 01-1.076.246zm.716-28.947L18.04 19.885l11.952 9.065z" clip-rule="evenodd" fill="#fff" fill-rule="evenodd" opacity=".1"/></svg>
